<svg width="600" height="1000" xmlns="http://www.w3.org/2000/svg" xmlns:svg="http://www.w3.org/2000/svg">
 <!-- Created with SVG-edit - http://svg-edit.googlecode.com/ -->
 <g>
  <title>Layer 1</title>
  <rect fill="#cccccc" stroke-width="3" width="600" height="1000" id="svg_1" stroke="#000000" rx="10" ry="10"/>
  <circle fill="#f8b859" stroke-width="3" stroke-dasharray="null" stroke-linejoin="null" stroke-linecap="null" cx="98.46154" cy="930" r="40" id="svg_5" stroke="#000000"/>
  <rect fill="#b2b2b2" stroke="#000000" stroke-width="3" stroke-dasharray="null" stroke-linejoin="null" stroke-linecap="null" x="50" y="750" width="500" height="60" id="svg_8" rx="4" ry="4"/>
  <rect fill="#f8b859" stroke="#000000" stroke-width="3" stroke-dasharray="null" stroke-linejoin="null" stroke-linecap="null" x="200" y="0" width="200" height="26" id="svg_9" rx="4" ry="4"/>
  <rect fill="#f8b859" stroke="#000000" stroke-width="3" stroke-dasharray="null" stroke-linejoin="null" stroke-linecap="null" x="200" y="120" width="60" height="40" id="svg_2" rx="4" ry="4" transform="rotate(15 230.00000000000009,139.99999999999994) "/>
  <rect fill="#b2b2b2" stroke="#000000" stroke-width="3" stroke-dasharray="null" stroke-linejoin="null" stroke-linecap="null" x="50" y="150" width="215" height="60" id="svg_10" rx="4" ry="4" transform="rotate(15 157.49999999999972,180.00000000000006) "/>
  <rect fill="#b2b2b2" stroke="#000000" stroke-width="3" stroke-dasharray="null" stroke-linejoin="null" stroke-linecap="null" x="50" y="350" width="215" height="60" rx="4" ry="4" transform="rotate(15 157.49999999999952,380.0000000000001) " id="svg_11"/>
  <rect fill="#b2b2b2" stroke="#000000" stroke-width="3" stroke-dasharray="null" stroke-linejoin="null" stroke-linecap="null" x="50" y="550" width="215" height="60" rx="4" ry="4" transform="rotate(15 157.49999999999952,580.0000000000001) " id="svg_12"/>
  <circle fill="#f8b859" stroke-width="3" stroke-dasharray="null" stroke-linejoin="null" stroke-linecap="null" cx="498.46154" cy="930" r="40" stroke="#000000" id="svg_13"/>
  <rect fill="#b2b2b2" stroke="#000000" stroke-width="3" stroke-dasharray="null" stroke-linejoin="null" stroke-linecap="null" x="335" y="150" width="215" height="60" rx="4" ry="4" id="svg_14" transform="rotate(-15 442.5000000000002,180) "/>
  <rect fill="#b2b2b2" stroke="#000000" stroke-width="3" stroke-dasharray="null" stroke-linejoin="null" stroke-linecap="null" x="335" y="350" width="215" height="60" rx="4" ry="4" transform="rotate(-15 442.5000000000007,380) " id="svg_15"/>
  <rect fill="#b2b2b2" stroke="#000000" stroke-width="3" stroke-dasharray="null" stroke-linejoin="null" stroke-linecap="null" x="335" y="550" width="215" height="60" rx="4" ry="4" transform="rotate(-15 442.5000000000007,580) " id="svg_16"/>
 </g>
</svg>
