<?xml version="1.0" standalone="no"?>
<!DOCTYPE svg PUBLIC "-//W3C//DTD SVG 20010904//EN"
 "http://www.w3.org/TR/2001/REC-SVG-20010904/DTD/svg10.dtd">
<svg version="1.0" xmlns="http://www.w3.org/2000/svg"
 width="406.000000pt" height="406.000000pt" viewBox="0 0 406.000000 406.000000"
 preserveAspectRatio="xMidYMid meet">
<metadata>
Created by potrace 1.11, written by Peter Selinger 2001-2013
</metadata>
<g transform="translate(0.000000,406.000000) scale(0.100000,-0.100000)"
fill="#000000" stroke="none">
<path d="M1878 3195 c-2 -2 -21 -6 -43 -9 -86 -13 -113 -19 -190 -43 -264 -83
-472 -250 -571 -458 -52 -110 -67 -183 -61 -300 8 -150 55 -270 153 -389 340
-412 1071 -495 1546 -175 90 61 208 182 256 264 47 81 79 174 88 254 l6 56
-118 0 -118 0 -16 -65 c-44 -181 -176 -337 -365 -433 -72 -37 -229 -87 -271
-87 l-24 0 0 309 c0 238 -3 310 -12 313 -7 2 -56 4 -108 4 l-95 -1 0 -313 0
-312 -31 0 c-48 0 -199 47 -278 86 -328 164 -466 500 -324 788 56 114 128 194
246 273 104 69 282 129 394 134 86 4 88 5 88 61 l0 49 -75 -2 c-41 -1 -76 -3
-77 -4z"/>
<path d="M2175 3192 c-3 -3 -5 -27 -5 -53 l0 -48 43 -11 c97 -23 206 -62 259
-93 186 -107 293 -242 344 -434 2 -10 35 -13 119 -13 63 0 115 2 115 4 0 1 -5
18 -11 37 -101 316 -401 542 -811 608 -26 5 -50 6 -53 3z"/>
<path d="M645 1302 c-42 -7 -94 -35 -114 -63 -47 -63 -58 -190 -26 -276 14
-37 72 -102 93 -104 4 0 16 -2 27 -5 21 -4 97 -6 183 -5 l52 1 0 40 0 40 -99
0 c-55 0 -107 3 -116 6 -32 13 -54 76 -50 146 4 71 11 93 44 122 17 16 38 19
121 20 l100 1 0 40 0 40 -97 1 c-54 0 -107 -2 -118 -4z"/>
<path d="M934 1301 c-9 -10 -4 -451 6 -452 6 -1 19 -1 30 -1 63 0 60 -5 60 87
0 47 3 85 8 86 42 6 89 4 99 -4 7 -5 31 -42 54 -83 22 -40 45 -76 51 -80 9 -6
108 -12 108 -7 0 3 -29 55 -73 128 l-35 59 30 18 c85 53 68 222 -25 244 -33 8
-305 12 -313 5z m253 -86 c35 -6 47 -29 37 -69 -7 -31 -19 -35 -114 -37 l-75
-2 -3 48 c-2 26 -1 53 1 59 5 11 93 12 154 1z"/>
<path d="M1563 1304 c-4 -1 -25 -5 -46 -9 -83 -14 -137 -100 -137 -220 0 -104
33 -171 101 -205 31 -16 60 -21 136 -21 150 -1 139 -5 139 41 l0 40 -102 0
c-92 0 -105 2 -128 23 -15 12 -29 36 -32 53 l-6 31 119 1 c65 0 125 1 134 1
11 1 15 11 14 39 l-1 37 -133 3 -133 3 7 27 c15 60 58 80 165 76 91 -3 97 -1
95 44 l-1 37 -91 0 c-50 0 -95 0 -100 -1z"/>
<path d="M1902 1298 c-114 -30 -121 -228 -9 -254 17 -4 35 -9 40 -10 4 -1 46
-2 95 -3 98 -1 112 -7 116 -44 6 -51 -4 -53 -256 -56 l-58 -1 0 -40 c0 -46
-20 -42 192 -40 70 0 138 4 150 9 24 10 68 47 69 59 0 4 2 26 5 49 8 58 -10
105 -47 127 -24 14 -55 19 -142 21 -99 2 -112 4 -128 23 -20 26 -15 58 13 73
11 6 80 11 154 12 l135 1 -3 40 -3 41 -147 0 c-82 0 -160 -3 -176 -7z"/>
<path d="M2424 1294 c-25 -6 -58 -24 -74 -39 -72 -69 -81 -249 -17 -339 39
-55 103 -70 288 -67 l45 1 0 40 0 40 -101 0 c-141 0 -167 22 -166 142 0 67 21
122 53 139 12 7 63 13 113 15 49 1 93 2 96 3 4 0 6 18 5 38 l-1 38 -98 0 c-54
0 -119 -5 -143 -11z"/>
<path d="M2845 1294 c-90 -22 -135 -95 -136 -217 -1 -117 44 -196 123 -218 38
-10 236 -14 245 -5 3 2 6 21 7 40 l1 36 -105 0 c-58 0 -110 4 -116 8 -20 14
-44 57 -44 78 0 21 3 22 129 20 122 -1 130 0 133 19 2 11 2 30 0 43 -3 21 -6
22 -133 22 -139 0 -142 1 -118 53 17 38 50 50 151 52 51 2 95 3 98 4 4 1 4 47
1 71 -2 10 -192 6 -236 -6z"/>
<path d="M3169 1301 c-1 -3 -2 -106 -3 -228 l-1 -223 42 0 c24 0 46 1 51 3 4
1 7 36 7 79 0 42 4 80 8 84 5 5 28 9 53 9 43 1 46 -1 72 -44 15 -26 33 -57 40
-71 26 -51 38 -59 85 -61 26 -2 50 0 54 4 3 4 -3 21 -15 37 -12 16 -22 32 -22
34 0 3 -14 28 -31 56 l-31 50 24 20 c12 11 26 19 29 20 14 0 32 65 30 108 -2
51 -19 83 -57 109 -21 13 -54 17 -180 18 -85 1 -155 -1 -155 -4z m286 -104
c15 -21 9 -57 -13 -74 -10 -8 -47 -13 -98 -13 l-81 0 1 53 c0 28 4 54 8 57 3
3 43 3 88 0 63 -4 85 -9 95 -23z"/>
</g>
</svg>
